<svg width="24" height="25" viewBox="0 0 24 25" fill="none" xmlns="http://www.w3.org/2000/svg">
<path fill-rule="evenodd" clip-rule="evenodd" d="M4.72007 4.47C4.8607 4.32955 5.05132 4.25066 5.25007 4.25066C5.44882 4.25066 5.63945 4.32955 5.78007 4.47L13.2801 11.97C13.4205 12.1106 13.4994 12.3012 13.4994 12.5C13.4994 12.6988 13.4205 12.8894 13.2801 13.03L5.78007 20.53C5.6379 20.6625 5.44985 20.7346 5.25555 20.7312C5.06125 20.7277 4.87586 20.649 4.73845 20.5116C4.60104 20.3742 4.52233 20.1888 4.5189 19.9945C4.51547 19.8002 4.58759 19.6122 4.72007 19.47L11.6901 12.5L4.72007 5.53C4.57962 5.38937 4.50073 5.19875 4.50073 5C4.50073 4.80125 4.57962 4.61063 4.72007 4.47ZM10.7201 4.47C10.8607 4.32955 11.0513 4.25066 11.2501 4.25066C11.4488 4.25066 11.6394 4.32955 11.7801 4.47L19.2801 11.97C19.4205 12.1106 19.4994 12.3012 19.4994 12.5C19.4994 12.6988 19.4205 12.8894 19.2801 13.03L11.7801 20.53C11.7114 20.6037 11.6286 20.6628 11.5366 20.7038C11.4446 20.7448 11.3453 20.7668 11.2446 20.7686C11.1439 20.7704 11.0439 20.7518 10.9505 20.7141C10.8571 20.6764 10.7723 20.6203 10.701 20.549C10.6298 20.4778 10.5737 20.393 10.5359 20.2996C10.4982 20.2062 10.4797 20.1062 10.4815 20.0055C10.4833 19.9048 10.5053 19.8055 10.5463 19.7135C10.5873 19.6215 10.6464 19.5387 10.7201 19.47L17.6901 12.5L10.7201 5.53C10.5796 5.38937 10.5007 5.19875 10.5007 5C10.5007 4.80125 10.5796 4.61063 10.7201 4.47Z" fill="#F1F1F1"/>
</svg>
