<svg width="469" height="60" viewBox="0 0 469 60" fill="none" xmlns="http://www.w3.org/2000/svg">
<g clip-path="url(#clip0_351_1168)">
<path d="M19 26.5C25.9037 26.5 31.5 32.0963 31.5 39C31.5 45.9037 25.9037 51.5 19 51.5C12.0963 51.5 6.5 45.9037 6.5 39C6.5 32.0963 12.0963 26.5 19 26.5ZM18.1163 34.58L14.58 38.1163C14.3457 38.3507 14.214 38.6685 14.214 39C14.214 39.3315 14.3457 39.6493 14.58 39.8837L18.1163 43.42C18.3507 43.6543 18.6685 43.786 19 43.786C19.3315 43.786 19.6493 43.6543 19.8837 43.42L23.42 39.8837C23.6543 39.6493 23.786 39.3315 23.786 39C23.786 38.6685 23.6543 38.3507 23.42 38.1163L19.8837 34.58C19.6493 34.3457 19.3315 34.214 19 34.214C18.6685 34.214 18.3507 34.3457 18.1163 34.58Z" fill="#F15025"/>
</g>
<path d="M47.5 27C54.4037 27 60 32.5963 60 39.5C60 46.4037 54.4037 52 47.5 52C40.5963 52 35 46.4037 35 39.5C35 32.5963 40.5963 27 47.5 27ZM46.6163 35.08L43.08 38.6163C42.8457 38.8507 42.714 39.1685 42.714 39.5C42.714 39.8315 42.8457 40.1493 43.08 40.3837L46.6163 43.92C46.8507 44.1543 47.1685 44.286 47.5 44.286C47.8315 44.286 48.1493 44.1543 48.3837 43.92L51.92 40.3837C52.1543 40.1493 52.286 39.8315 52.286 39.5C52.286 39.1685 52.1543 38.8507 51.92 38.6163L48.3837 35.08C48.1493 34.8457 47.8315 34.714 47.5 34.714C47.1685 34.714 46.8507 34.8457 46.6163 35.08Z" fill="#F15025"/>
<path d="M33.9254 23.96L24.1067 18.16L33.924 32L43.7507 18.16L33.9214 23.96H33.9254ZM34.0747 0L24.2534 16.2973L34.0734 22.1027L43.8934 16.3027L34.0747 0Z" fill="#F15025"/>
<path d="M128.5 37V23L139.5 30L128.5 37Z" fill="#F15025"/>
<path d="M257.45 15L236.825 3.18751C236.113 2.79353 235.313 2.58684 234.5 2.58684C233.687 2.58684 232.887 2.79353 232.175 3.18751L211.55 15C210.83 15.4114 210.232 16.0065 209.817 16.7246C209.402 17.4427 209.184 18.2581 209.188 19.0875V41.25C209.241 42.0214 209.485 42.7676 209.898 43.4219C210.31 44.0762 210.877 44.6183 211.55 45L232.175 56.6625C232.887 57.0565 233.687 57.2632 234.5 57.2632C235.313 57.2632 236.113 57.0565 236.825 56.6625L257.45 45C258.123 44.6183 258.69 44.0762 259.102 43.4219C259.515 42.7676 259.759 42.0214 259.813 41.25V18.9375C259.79 18.1337 259.56 17.3492 259.146 16.6597C258.733 15.9701 258.148 15.3986 257.45 15ZM232.175 51.4125L224.188 46.9125V27.0375L232.175 31.3875V51.4125ZM234.5 27.3375L226.7 23.0625L244.738 13.05L252.575 17.475L234.5 27.3375ZM234.5 7.27501L239.975 10.35L221.825 20.4375L216.425 17.475L234.5 7.27501ZM213.875 21.4125L219.5 24.4875V44.25L213.875 41.25V21.4125ZM236.825 51.4125V31.3875L255.125 21.4125V41.25L236.825 51.4125Z" fill="#F15025"/>
<path d="M332.5 37V23L343.5 30L332.5 37Z" fill="#F15025"/>
<path d="M467.225 26.25L463.813 16.2L440.825 3.18751C440.113 2.79353 439.313 2.58684 438.5 2.58684C437.687 2.58684 436.887 2.79353 436.175 3.18751L413.188 16.2L409.775 26.25C409.41 27.2931 409.428 28.4322 409.827 29.4629C410.226 30.4937 410.978 31.3488 411.95 31.875L413.188 32.55V41.25C413.241 42.0214 413.485 42.7676 413.898 43.4219C414.31 44.0762 414.877 44.6183 415.55 45L436.175 56.6625C436.887 57.0565 437.687 57.2632 438.5 57.2632C439.313 57.2632 440.113 57.0565 440.825 56.6625L461.45 45C462.123 44.6183 462.69 44.0762 463.102 43.4219C463.515 42.7676 463.759 42.0214 463.813 41.25V32.55L465.05 31.875C466.022 31.3488 466.775 30.4937 467.173 29.4629C467.572 28.4322 467.59 27.2931 467.225 26.25ZM446 37.0125L444.2 32.2125L461 22.9875L462.65 27.7875L446 37.0125ZM438.5 7.27501L458.975 18.75L438.5 30L418.025 18.75L438.5 7.27501ZM414.2 27.7875L416 22.9875L432.8 32.2125L431 37.0125L414.2 27.7875ZM417.95 35.1L433.888 43.8L436.213 36.9V51.4125L417.875 41.25L417.95 35.1ZM459.125 41.25L440.825 51.4125V36.9L443.188 43.8L459.125 35.1V41.25Z" fill="#F15025"/>
<path d="M429.5 14.25C432.952 14.25 435.75 17.0481 435.75 20.5C435.75 23.9519 432.952 26.75 429.5 26.75C426.048 26.75 423.25 23.9519 423.25 20.5C423.25 17.0481 426.048 14.25 429.5 14.25ZM429.058 18.29L427.29 20.0581C427.173 20.1753 427.107 20.3343 427.107 20.5C427.107 20.6657 427.173 20.8247 427.29 20.9419L429.058 22.71C429.175 22.8272 429.334 22.893 429.5 22.893C429.666 22.893 429.825 22.8272 429.942 22.71L431.71 20.9419C431.827 20.8247 431.893 20.6657 431.893 20.5C431.893 20.3343 431.827 20.1753 431.71 20.0581L429.942 18.29C429.825 18.1728 429.666 18.107 429.5 18.107C429.334 18.107 429.175 18.1728 429.058 18.29Z" fill="#F15025"/>
<g clip-path="url(#clip1_351_1168)">
<path d="M444.364 23.97L437 19.62L444.363 30L451.733 19.62L444.361 23.97H444.364ZM444.476 6L437.11 18.223L444.475 22.577L451.84 18.227L444.476 6Z" fill="#F15025"/>
</g>
<path d="M467.225 26.25L463.813 16.2L459 18.5L438.5 30L417.95 18.5L413.188 16.2L409.775 26.25C409.41 27.2931 409.428 28.4321 409.827 29.4629C410.226 30.4937 410.978 31.3488 411.95 31.875L413.188 32.55V41.25C413.241 42.0215 413.485 42.7676 413.898 43.4219C414.31 44.0762 414.877 44.6183 415.55 45L436.175 56.6625C436.887 57.0565 437.687 57.2632 438.5 57.2632C439.313 57.2632 440.113 57.0565 440.825 56.6625L461.45 45C462.123 44.6183 462.69 44.0762 463.102 43.4219C463.515 42.7676 463.759 42.0215 463.813 41.25V32.55L465.05 31.875C466.022 31.3488 466.775 30.4937 467.173 29.4629C467.572 28.4321 467.59 27.2931 467.225 26.25ZM446 37.0125L444.2 32.2125L461 22.9875L462.65 27.7875L446 37.0125ZM414.2 27.7875L416 22.9875L432.8 32.2125L431 37.0125L414.2 27.7875ZM417.95 35.1L433.888 43.8L436.213 36.9V51.4125L417.875 41.25L417.95 35.1ZM459.125 41.25L440.825 51.4125V36.9L443.188 43.8L459.125 35.1V41.25Z" fill="#F15025"/>
<defs>
<clipPath id="clip0_351_1168">
<rect width="30" height="30" fill="white" transform="translate(4 24)"/>
</clipPath>
<clipPath id="clip1_351_1168">
<rect width="24" height="24" fill="white" transform="translate(430 4)"/>
</clipPath>
</defs>
</svg>
