<svg width="469" height="60" viewBox="0 0 469 60" fill="none" xmlns="http://www.w3.org/2000/svg">
<path d="M17.143 32.3094C22.7317 32.3094 27.262 36.8397 27.262 42.4285C27.262 48.0172 22.7317 52.5475 17.143 52.5475C11.5542 52.5475 7.02393 48.0172 7.02393 42.4285C7.02393 36.8397 11.5542 32.3094 17.143 32.3094ZM16.4276 38.8504L13.5649 41.7131C13.3752 41.9028 13.2686 42.1602 13.2686 42.4285C13.2686 42.6968 13.3752 42.9542 13.5649 43.1439L16.4276 46.0066C16.6173 46.1963 16.8747 46.3029 17.143 46.3029C17.4113 46.3029 17.6686 46.1963 17.8584 46.0066L20.7211 43.1439C20.9108 42.9542 21.0173 42.6968 21.0173 42.4285C21.0173 42.1602 20.9108 41.9028 20.7211 41.7131L17.8584 38.8504C17.6686 38.6607 17.4113 38.5541 17.143 38.5541C16.8747 38.5541 16.6173 38.6607 16.4276 38.8504Z" fill="#F15025"/>
<path d="M42.643 25.4286C48.2317 25.4286 52.762 29.9589 52.762 35.5476C52.762 41.1364 48.2317 45.6667 42.643 45.6667C37.0542 45.6667 32.5239 41.1364 32.5239 35.5476C32.5239 29.9589 37.0542 25.4286 42.643 25.4286ZM41.9276 31.9695L39.0649 34.8322C38.8752 35.022 38.7686 35.2793 38.7686 35.5476C38.7686 35.816 38.8752 36.0733 39.0649 36.2631L41.9276 39.1257C42.1173 39.3154 42.3747 39.422 42.643 39.422C42.9113 39.422 43.1686 39.3154 43.3584 39.1257L46.2211 36.2631C46.4108 36.0733 46.5173 35.816 46.5173 35.5476C46.5173 35.2793 46.4108 35.022 46.2211 34.8322L43.3584 31.9695C43.1686 31.7798 42.9113 31.6733 42.643 31.6733C42.3747 31.6733 42.1173 31.7798 41.9276 31.9695Z" fill="#F15025"/>
<path d="M26.9393 25.4675L18.9617 20.755L26.9383 32L34.9224 20.755L26.9361 25.4675H26.9393ZM27.0607 6L19.0808 19.2416L27.0596 23.9584L35.0383 19.2459L27.0607 6Z" fill="#F15025"/>
<path d="M128.5 37V23L139.5 30L128.5 37Z" fill="#F15025"/>
<path d="M227.938 7.50002C226.694 7.50002 225.502 7.99388 224.623 8.87295C223.744 9.75203 223.25 10.9443 223.25 12.1875C223.25 13.4307 223.744 14.623 224.623 15.5021C225.502 16.3812 226.694 16.875 227.938 16.875H232.625V28.125H212.938C211.694 28.125 210.502 27.6312 209.623 26.7521C208.744 25.873 208.25 24.6807 208.25 23.4375V21.5625C208.25 18.9725 210.35 16.875 212.938 16.875H220.92C219.705 15.0694 219.234 12.8639 219.606 10.7194C219.979 8.57494 221.166 6.65734 222.919 5.36734C224.672 4.07734 226.856 3.51473 229.014 3.79709C231.172 4.07945 233.138 5.18492 234.5 6.88252C235.862 5.18492 237.828 4.07945 239.986 3.79709C242.144 3.51473 244.328 4.07734 246.081 5.36734C247.834 6.65734 249.021 8.57494 249.394 10.7194C249.766 12.8639 249.295 15.0694 248.08 16.875H257.938C260.525 16.875 262.625 18.975 262.625 21.5625V23.4375C262.625 26.0275 260.525 28.125 257.938 28.125H236.375V16.875H241.062C241.99 16.875 242.896 16.6001 243.667 16.085C244.438 15.57 245.038 14.8379 245.393 13.9813C245.748 13.1248 245.841 12.1823 245.66 11.273C245.479 10.3637 245.033 9.52851 244.377 8.87295C243.722 8.21739 242.886 7.77095 241.977 7.59009C241.068 7.40922 240.125 7.50204 239.269 7.85683C238.412 8.21162 237.68 8.81242 237.165 9.58328C236.65 10.3541 236.375 11.2604 236.375 12.1875V16.875H232.625V12.1875C232.625 9.59752 230.525 7.50002 227.938 7.50002ZM232.625 31.875H212V48.75C212 50.2419 212.593 51.6726 213.648 52.7275C214.702 53.7824 216.133 54.375 217.625 54.375H232.625V31.875ZM236.375 31.875V54.375H253.25C254.742 54.375 256.173 53.7824 257.227 52.7275C258.282 51.6726 258.875 50.2419 258.875 48.75V31.875H236.375Z" fill="#F15025"/>
<path d="M332.5 37V23L343.5 30L332.5 37Z" fill="#F15025"/>
<path d="M437 4C441.418 4 445 7.5816 445 12C445 16.4184 441.418 20 437 20C432.582 20 429 16.4184 429 12C429 7.5816 432.582 4 437 4ZM436.434 9.1712L434.171 11.4344C434.021 11.5844 433.937 11.7879 433.937 12C433.937 12.2121 434.021 12.4156 434.171 12.5656L436.434 14.8288C436.584 14.9788 436.788 15.063 437 15.063C437.212 15.063 437.416 14.9788 437.566 14.8288L439.829 12.5656C439.979 12.4156 440.063 12.2121 440.063 12C440.063 11.7879 439.979 11.5844 439.829 11.4344L437.566 9.1712C437.416 9.02122 437.212 8.93697 437 8.93697C436.788 8.93697 436.584 9.02122 436.434 9.1712Z" fill="#F15025"/>
<path d="M449 17C453.418 17 457 20.5816 457 25C457 29.4184 453.418 33 449 33C444.582 33 441 29.4184 441 25C441 20.5816 444.582 17 449 17ZM448.434 22.1712L446.171 24.4344C446.021 24.5844 445.937 24.7879 445.937 25C445.937 25.2121 446.021 25.4156 446.171 25.5656L448.434 27.8288C448.584 27.9788 448.788 28.063 449 28.063C449.212 28.063 449.416 27.9788 449.566 27.8288L451.829 25.5656C451.979 25.4156 452.063 25.2121 452.063 25C452.063 24.7879 451.979 24.5844 451.829 24.4344L449.566 22.1712C449.416 22.0212 449.212 21.937 449 21.937C448.788 21.937 448.584 22.0212 448.434 22.1712Z" fill="#F15025"/>
<path d="M424.451 25.7237L418 21.9175L424.45 31L430.906 21.9175L424.448 25.7237H424.451ZM424.549 10L418.096 20.6951L424.548 24.5049L431 20.6986L424.549 10Z" fill="#F15025"/>
<path d="M436.483 38.4H421.69V50.1C421.69 51.1343 422.115 52.1263 422.871 52.8577C423.628 53.5891 424.654 54 425.724 54H436.483V38.4ZM439.172 38.4V54H451.276C452.346 54 453.372 53.5891 454.129 52.8577C454.885 52.1263 455.31 51.1343 455.31 50.1V38.4H439.172Z" fill="#F15025"/>
<path d="M436.483 28V35.8H422.362C421.47 35.8 420.615 35.4576 419.985 34.8481C419.354 34.2386 419 33.412 419 32.55V31.25C419 29.4543 420.506 28 422.362 28H436.483Z" fill="#F15025"/>
<path d="M439.172 28H454.638C456.494 28 458 29.456 458 31.25V32.55C458 34.3457 456.494 35.8 454.638 35.8H439.172V28Z" fill="#F15025"/>
</svg>
