<svg width="16" height="17" viewBox="0 0 16 17" fill="none" xmlns="http://www.w3.org/2000/svg">
<g id="Frame">
<path id="Vector" fill-rule="evenodd" clip-rule="evenodd" d="M1.5 8.5C1.5 4.91 4.41 2 8 2C11.59 2 14.5 4.91 14.5 8.5C14.5 12.09 11.59 15 8 15C4.41 15 1.5 12.09 1.5 8.5ZM9.08533 5.88867C8.492 5.37067 7.508 5.37067 6.91533 5.88867C6.81552 5.97601 6.6851 6.02013 6.55277 6.01132C6.42043 6.0025 6.29701 5.94148 6.20967 5.84167C6.12232 5.74186 6.0782 5.61144 6.08702 5.4791C6.09583 5.34676 6.15686 5.22334 6.25667 5.136C7.226 4.288 8.774 4.288 9.74333 5.136C10.752 6.01867 10.752 7.48133 9.74333 8.364C9.57464 8.51109 9.38697 8.63486 9.18533 8.732C8.73467 8.95067 8.5 9.248 8.5 9.5V10C8.5 10.1326 8.44732 10.2598 8.35355 10.3536C8.25979 10.4473 8.13261 10.5 8 10.5C7.86739 10.5 7.74022 10.4473 7.64645 10.3536C7.55268 10.2598 7.5 10.1326 7.5 10V9.5C7.5 8.64733 8.20667 8.09533 8.75 7.832C8.87133 7.77333 8.984 7.69933 9.08533 7.61133C9.63867 7.12667 9.63867 6.37333 9.08533 5.88867ZM8 12.5C8.13261 12.5 8.25979 12.4473 8.35355 12.3536C8.44732 12.2598 8.5 12.1326 8.5 12C8.5 11.8674 8.44732 11.7402 8.35355 11.6464C8.25979 11.5527 8.13261 11.5 8 11.5C7.86739 11.5 7.74022 11.5527 7.64645 11.6464C7.55268 11.7402 7.5 11.8674 7.5 12C7.5 12.1326 7.55268 12.2598 7.64645 12.3536C7.74022 12.4473 7.86739 12.5 8 12.5Z" fill="#F1F1F1"/>
</g>
</svg>
