<svg width="25" height="24" viewBox="0 0 25 24" fill="none" xmlns="http://www.w3.org/2000/svg">
<g id="Frame">
<path id="Vector" d="M9.875 2.99999C9.37772 2.99999 8.9008 3.19754 8.54917 3.54917C8.19754 3.9008 8 4.37771 8 4.87499C8 5.37227 8.19754 5.84919 8.54917 6.20082C8.9008 6.55245 9.37772 6.74999 9.875 6.74999H11.75V11.25H3.875C3.37772 11.25 2.90081 11.0525 2.54917 10.7008C2.19754 10.3492 2 9.87228 2 9.37499V8.62499C2 7.58899 2.84 6.74999 3.875 6.74999H7.068C6.58181 6.02775 6.39354 5.14556 6.54253 4.28776C6.69152 3.42996 7.16624 2.66292 7.86749 2.14692C8.56875 1.63092 9.44228 1.40588 10.3056 1.51883C11.1688 1.63177 11.9551 2.07396 12.5 2.75299C13.0449 2.07396 13.8312 1.63177 14.6944 1.51883C15.5577 1.40588 16.4313 1.63092 17.1325 2.14692C17.8338 2.66292 18.3085 3.42996 18.4575 4.28776C18.6065 5.14556 18.4182 6.02775 17.932 6.74999H21.875C22.91 6.74999 23.75 7.58999 23.75 8.62499V9.37499C23.75 10.411 22.91 11.25 21.875 11.25H13.25V6.74999H15.125C15.4958 6.74999 15.8584 6.64003 16.1667 6.434C16.475 6.22797 16.7154 5.93514 16.8573 5.59253C16.9992 5.24991 17.0363 4.87291 16.964 4.5092C16.8916 4.14549 16.713 3.81139 16.4508 3.54917C16.1886 3.28695 15.8545 3.10837 15.4908 3.03602C15.1271 2.96367 14.7501 3.00081 14.4075 3.14272C14.0649 3.28463 13.772 3.52496 13.566 3.8333C13.36 4.14164 13.25 4.50415 13.25 4.87499V6.74999H11.75V4.87499C11.75 3.83899 10.91 2.99999 9.875 2.99999ZM11.75 12.75H3.5V19.5C3.5 20.0967 3.73705 20.669 4.15901 21.091C4.58097 21.5129 5.15326 21.75 5.75 21.75H11.75V12.75ZM13.25 12.75V21.75H20C20.5967 21.75 21.169 21.5129 21.591 21.091C22.0129 20.669 22.25 20.0967 22.25 19.5V12.75H13.25Z" fill="#F15025"/>
</g>
</svg>
